<svg width="22" height="20" viewBox="0 0 22 20" fill="none" xmlns="http://www.w3.org/2000/svg">
<path d="M5.67285 12.1403L2.96381 18.1818H7.96254C7.74238 18.3725 7.60085 18.6488 7.60085 18.961C7.60085 19.5351 8.07 20 8.64924 20C9.22848 20 9.69763 19.5351 9.69763 18.961C9.69763 18.6488 9.5561 18.3725 9.33594 18.1818H14.2524C14.0327 18.3725 13.8912 18.6488 13.8912 18.961C13.8912 19.5351 14.3604 20 14.9396 20C15.5188 20 15.988 19.5351 15.988 18.961C15.988 18.6488 15.8465 18.3725 15.6263 18.1818H19.3953V15.5844H6.99645L7.92847 13.5065H18.5052L22 3.11688H5.40027L4.35188 0H0V2.5974H2.46267L5.67285 12.1403ZM18.3631 5.71429L16.616 10.9091H8.02125L6.27411 5.71429H18.3631Z" fill="#CCCCCC"/>
</svg>
