<svg width="20" height="20" viewBox="0 0 20 20" fill="none" xmlns="http://www.w3.org/2000/svg">
<path fill-rule="evenodd" clip-rule="evenodd" d="M6.36547 6.36547C7.32941 5.40154 8.63679 4.86 10 4.86C11.3632 4.86 12.6706 5.40154 13.6345 6.36547C14.5985 7.32941 15.14 8.63679 15.14 10C15.14 11.3632 14.5985 12.6706 13.6345 13.6345C12.6706 14.5985 11.3632 15.14 10 15.14C8.63679 15.14 7.32941 14.5985 6.36547 13.6345C5.40153 12.6706 4.86 11.3632 4.86 10C4.86 8.63679 5.40153 7.32941 6.36547 6.36547ZM8.72311 13.0827C9.12793 13.2504 9.56182 13.3367 10 13.3367C10.8849 13.3367 11.7336 12.9851 12.3594 12.3594C12.9851 11.7336 13.3367 10.8849 13.3367 10C13.3367 9.11506 12.9851 8.26637 12.3594 7.64062C11.7336 7.01488 10.8849 6.66334 10 6.66334C9.56182 6.66334 9.12793 6.74964 8.72311 6.91732C8.31829 7.08501 7.95046 7.33079 7.64062 7.64062C7.33078 7.95046 7.08501 8.31829 6.91732 8.72311C6.74964 9.12794 6.66333 9.56183 6.66333 10C6.66333 10.4382 6.74964 10.8721 6.91732 11.2769C7.08501 11.6817 7.33078 12.0495 7.64062 12.3594C7.95046 12.6692 8.31829 12.915 8.72311 13.0827Z" fill="#CCCCCC"/>
<path d="M16.2795 5.6258C16.5073 5.39795 16.6353 5.08891 16.6353 4.76667C16.6353 4.44443 16.5073 4.13539 16.2795 3.90754C16.0516 3.67968 15.7426 3.55167 15.4203 3.55167C15.0981 3.55167 14.7891 3.67968 14.5612 3.90754C14.3333 4.13539 14.2053 4.44443 14.2053 4.76667C14.2053 5.08891 14.3333 5.39795 14.5612 5.6258C14.7891 5.85366 15.0981 5.98167 15.4203 5.98167C15.7426 5.98167 16.0516 5.85366 16.2795 5.6258Z" fill="#CCCCCC"/>
<path fill-rule="evenodd" clip-rule="evenodd" d="M5.87733 0.0599999C6.944 0.0113334 7.284 0 10 0C12.7167 0 13.056 0.0119999 14.122 0.0599999C15.1867 0.108667 15.9147 0.278667 16.5507 0.524667C17.2177 0.775905 17.8219 1.16948 18.3213 1.678C18.83 2.17755 19.2236 2.78204 19.4747 3.44933C19.722 4.08533 19.8913 4.81267 19.94 5.87733C19.9887 6.944 20 7.284 20 10C20 12.716 19.9887 13.056 19.94 14.1227C19.8913 15.1873 19.722 15.9147 19.4753 16.5507C19.2241 17.2177 18.8305 17.8219 18.322 18.3213C17.822 18.8307 17.2173 19.224 16.5507 19.4747C15.9147 19.722 15.1873 19.8913 14.1227 19.94C13.056 19.9887 12.716 20 10 20C7.284 20 6.944 19.9887 5.87733 19.94C4.81267 19.8913 4.08533 19.722 3.44933 19.4753C2.78234 19.2241 2.1781 18.8305 1.67867 18.322C1.16933 17.822 0.776 17.2173 0.525333 16.5507C0.278 15.9147 0.108667 15.1873 0.0599999 14.1227C0.0113334 13.056 0 12.7167 0 10C0 7.28333 0.0119999 6.944 0.0599999 5.878C0.108667 4.81333 0.278667 4.08533 0.524667 3.44933C0.775905 2.78233 1.16948 2.17809 1.678 1.67867C2.178 1.16933 2.78267 0.776 3.44933 0.525333C4.08533 0.278 4.81267 0.108667 5.87733 0.0599999ZM14.0413 1.86C12.9867 1.812 12.67 1.802 10 1.802C7.33 1.802 7.01333 1.812 5.95867 1.86C4.984 1.90467 4.45467 2.06733 4.102 2.20467C3.66761 2.36465 3.27463 2.62003 2.952 2.952C2.60267 3.302 2.38533 3.63533 2.20467 4.102C2.06667 4.45467 1.90467 4.984 1.86 5.95867C1.812 7.01333 1.802 7.33 1.802 10C1.802 12.67 1.812 12.9867 1.86 14.0413C1.90467 15.016 2.06733 15.5453 2.20467 15.898C2.36475 16.3323 2.62012 16.7253 2.952 17.048C3.27467 17.3799 3.66764 17.6353 4.102 17.7953C4.45467 17.9333 4.984 18.0953 5.95867 18.14C7.01333 18.188 7.32933 18.198 10 18.198C12.6707 18.198 12.9867 18.188 14.0413 18.14C15.016 18.0953 15.5453 17.9327 15.898 17.7953C16.3324 17.6354 16.7254 17.38 17.048 17.048C17.3799 16.7253 17.6353 16.3324 17.7953 15.898C17.9333 15.5453 18.0953 15.016 18.14 14.0413C18.188 12.9867 18.198 12.67 18.198 10C18.198 7.33 18.188 7.01333 18.14 5.95867C18.0953 4.984 17.9327 4.45467 17.7953 4.102C17.6147 3.63533 17.398 3.302 17.048 2.952C16.698 2.60267 16.3647 2.38533 15.898 2.20467C15.5453 2.06667 15.016 1.90467 14.0413 1.86Z" fill="#CCCCCC"/>
</svg>
