<svg width="239" height="150" viewBox="0 0 239 150" fill="none" xmlns="http://www.w3.org/2000/svg">
<path d="M67.7685 109.841C67.8058 109.879 67.7615 110.394 67.6696 110.986C66.9982 115.314 66.8555 120.443 67.2411 124.957H31.3872C30.6145 124.881 29.8359 124.881 29.0497 124.957H5.40328C4.97383 124.715 4.54793 124.467 4.1359 124.215C3.12408 123.596 0.605932 121.652 0.100601 121.1C-0.198901 120.772 0.128183 120.891 1.65524 121.661C2.71889 122.199 3.70793 122.639 3.85319 122.64C3.99833 122.642 4.42439 122.751 4.79992 122.883C5.17549 123.015 6.1977 123.238 7.07146 123.38C11.3927 124.08 14.6302 123.242 19.5753 120.143C24.0308 117.351 28.7905 115.741 33.215 115.531C34.9517 115.448 39.3941 115.66 40.8203 115.893C41.0929 115.938 42.1347 116.085 43.1349 116.221C45.3067 116.516 46.4395 116.695 48.4256 117.058C50.2578 117.392 53.2858 117.398 54.9557 117.07C59.1479 116.246 63.2223 114.052 66.6603 110.767C67.2323 110.22 67.731 109.803 67.7685 109.841ZM85.5244 90.4912C98.0519 75.8486 118.11 70.8561 135.94 77.9429C144.976 81.5345 152.834 88.3189 157.903 96.9039C161.168 102.435 163.166 108.538 163.902 115.226C164.187 117.821 164.138 121.897 163.824 124.957H75.0493C75.0442 124.904 75.039 124.853 75.0343 124.803C74.9719 124.116 74.8885 123.498 74.8489 123.429C74.8093 123.361 74.7816 121.83 74.7878 120.027C74.8096 113.697 75.6863 108.91 77.849 103.317C78.5901 101.4 79.9549 98.551 80.6981 97.3698C80.9979 96.8932 81.2434 96.4651 81.2434 96.4184C81.2437 96.1163 84.1246 92.1274 85.5244 90.4912ZM178.788 105.736C182.272 105.735 183.542 105.797 184.988 106.041C189.647 106.824 193.183 108.176 197.192 110.704C198.085 111.267 198.941 111.805 199.094 111.898C199.246 111.992 199.706 112.289 200.115 112.559C201.86 113.709 204.389 114.988 205.534 115.299C208.425 116.083 211.314 115.747 214.845 114.216C218.568 112.603 220.946 112.158 224.171 112.472C228.533 112.896 233.273 114.999 237.431 118.355C239.262 119.833 239.406 120.107 237.929 119.305C235.091 117.762 232.37 117.055 229.296 117.061C225.894 117.069 223.467 117.86 219.779 120.17C215.168 123.058 211.176 124.534 206.825 124.957H200.383C199.785 124.914 199.217 124.861 198.71 124.797C195.39 124.378 192.8 123.986 190.526 123.558C188.899 123.251 185.695 123.208 184.201 123.473C182.658 123.746 181.056 124.256 179.48 124.957H171.673C171.678 124.916 171.682 124.877 171.686 124.838C171.821 123.581 171.857 121.536 171.795 118.675C171.698 114.206 171.393 111.384 170.676 108.305C170.482 107.473 170.349 106.767 170.381 106.736C170.413 106.706 171.331 106.468 172.423 106.209C174.339 105.753 174.556 105.737 178.788 105.736ZM17.1273 64.5073C15.9111 61.8965 14.907 58.8065 15.9333 60.8332C17.3531 63.6373 20.392 66.6571 23.2559 68.1104C26.2304 69.6196 27.5039 69.8491 33.2331 69.9076C36.6415 69.9423 38.2757 70.0286 39.4976 70.2383C45.0042 71.1845 48.9792 73.194 55.2867 78.2204C55.9684 78.7638 56.5637 79.255 56.6093 79.3124C56.6549 79.3696 56.9646 79.621 57.2976 79.8712C57.6308 80.1211 58.0027 80.4224 58.1244 80.5403C59.6987 82.0685 62.3526 83.832 64.3554 84.6811C66.683 85.6682 68.4459 86.0178 71.5715 86.113C74.2932 86.1957 75.9466 86.0366 79.1766 85.3802C79.6499 85.284 79.6605 85.2939 79.4065 85.5949C79.2602 85.7687 79.0227 86.0606 78.8793 86.244C78.7358 86.4271 78.3573 86.898 78.0383 87.2901C76.1718 89.5847 73.7023 93.6112 72.1425 96.9039C70.8183 99.6996 68.9493 104.726 68.7672 105.982C68.7289 106.245 68.3216 106.335 67.769 106.202C67.0445 106.029 64.8819 105.229 63.5411 104.639C60.1777 103.159 55.6665 100 52.9355 97.212C50.2635 94.4846 48.809 92.3935 46.6394 88.1593C43.6393 82.3051 42.1603 80.4582 39.3322 79.0359C37.7977 78.264 36.3549 77.8805 33.5933 77.5109C30.9099 77.1516 29.3856 76.7656 27.7592 76.0333C23.4048 74.0726 19.7244 70.0826 17.1273 64.5073ZM212.838 58.9996C215.438 58.7016 220.102 58.9474 222.269 59.4965C222.742 59.6165 222.772 59.6463 222.434 59.6603C218.515 59.8234 215.308 60.6983 212.597 62.3444C210.175 63.8155 208.057 66.2259 206.441 69.349C205.342 71.4717 203.702 74.0256 202.276 75.8337C201.412 76.9281 199.552 78.7187 198.145 79.8091C194.977 82.2631 191.277 84.0965 183.996 86.821C182.723 87.2974 181.214 87.9042 180.644 88.1695C175.965 90.3459 172.14 95.1446 169.971 101.56C169.498 102.961 169.384 103.167 169.239 102.892C169.144 102.713 168.695 101.589 168.241 100.394C166.915 96.8987 165.17 93.5564 162.942 90.2416C161.91 88.7074 160.269 86.473 159.944 86.1605C159.896 86.1149 159.448 85.5921 158.948 84.9989C158.448 84.4056 157.793 83.664 157.492 83.3504L156.945 82.7804L157.575 82.1173C158.405 81.2429 161.141 79.0698 162.36 78.3164C166.127 75.9892 170.354 74.245 174.489 73.3116C176.162 72.9342 176.489 72.9193 183.5 72.9073L190.774 72.8948L192.077 72.4432C194.796 71.5017 196.912 69.8546 198.887 67.145C202.626 62.0118 206.552 59.7201 212.838 58.9996ZM58.607 19.8686C58.7971 17.8237 59.2122 15.7108 59.245 16.6208C59.2992 18.1218 59.6184 20.5284 59.924 21.738C60.4118 23.6695 61.968 26.9137 62.8495 27.8366C62.9662 27.959 63.2581 28.3177 63.4973 28.6338C63.9582 29.2427 65.9963 30.9571 67.0743 31.6427C67.4283 31.8678 68.2874 32.3577 68.9834 32.7313C77.0429 37.0573 81.0593 41.8526 84.7872 51.599C85.0327 52.2402 85.3354 53.0272 85.46 53.3478C85.5848 53.6684 85.9939 54.7552 86.3699 55.7629C88.0908 60.3769 89.8026 62.8341 93.0085 65.2907C95.2773 67.0294 98.289 68.599 100.959 69.4343C101.481 69.5979 101.909 69.7776 101.91 69.8343C101.91 69.8906 101.631 70.0328 101.29 70.1496C98.1301 71.2336 93.2405 73.7869 89.7014 76.201C88.1483 77.2604 84.9607 79.8605 83.6407 81.1448C83.0042 81.7636 82.4034 82.3174 82.305 82.3753C82.2072 82.4332 81.7178 82.0531 81.218 81.5306C78.6224 78.8173 76.0786 74.6387 74.5553 70.5869C74.3142 69.9456 74.0493 69.271 73.9667 69.0879C73.7357 68.5745 73.1801 66.5922 72.7766 64.8407C72.4323 63.3467 72.411 62.8578 72.3952 56.0961C72.3779 48.7518 72.3282 48.0749 71.6826 46.4251C70.7668 44.0843 69.2566 42.2366 66.6336 40.2485C65.7123 39.5502 64.4515 38.483 63.8321 37.8767C59.5822 33.7192 57.8685 27.8131 58.607 19.8686ZM178.174 15.8458C178.854 15.4791 178.787 15.8407 178.099 16.246C175.344 17.8729 172.601 20.6982 171.346 23.2031C169.741 26.4073 169.524 27.5953 169.453 33.5653C169.397 38.3061 169.266 39.6605 168.621 42.1941C168.265 43.5895 167.639 45.4779 167.324 46.1063C167.187 46.379 166.833 47.089 166.538 47.6846C165.8 49.1723 164.576 51.1463 163.284 52.9312C162.147 54.5014 159.177 58.308 158.865 58.5944C158.282 59.1295 155.811 62.4743 155.808 62.7329C155.808 62.8103 155.669 63.0728 155.5 63.3159C155.084 63.9167 154.092 66.6428 153.732 68.1717C153.295 70.0354 153.208 74.4939 153.567 76.7037C153.954 79.0881 153.943 79.0304 154.073 79.5396C154.225 80.1363 154.121 80.1177 153.343 79.41C151.63 77.8505 145.296 73.5068 144.012 73.0109C143.816 72.9349 142.884 72.4907 141.942 72.0235C140.11 71.1143 137.249 69.9796 134.993 69.2669C134.23 69.0261 133.55 68.7934 133.48 68.7501C133.159 68.5505 134.416 65.0669 135.791 62.3413C137.295 59.363 139.954 55.705 142.364 53.3001C143.856 51.8105 146.228 49.9002 147.568 49.1079C147.871 48.9289 148.417 48.6008 148.78 48.3788C149.144 48.157 150.433 47.4579 151.644 46.8256C157.122 43.9646 158.984 42.425 160.409 39.5778C161.127 38.1428 161.549 36.5043 161.927 33.6879C162.567 28.9083 163.79 26.1717 166.705 23.0039C169.196 20.2961 173.436 17.514 176.822 16.3647C177.4 16.1688 178.008 15.9352 178.174 15.8458ZM116.336 2.96254C118.852 -0.366111 119.351 -0.808689 118.293 1.22792C116.507 4.66557 115.807 8.65818 116.368 12.2069C116.474 12.8739 116.9 14.4613 117.106 14.9552C117.183 15.1385 117.384 15.6256 117.554 16.0379C117.724 16.4502 118.448 17.7617 119.164 18.9525C120.68 21.4752 122.215 24.5885 122.819 26.3645C124.304 30.7325 124.545 35.4003 123.641 42.2713C123.24 45.3146 123.133 46.0276 122.656 48.8507C122.352 50.645 122.315 53.8041 122.582 55.1757C123.355 59.1472 125.698 63.6822 128.582 66.7881C129.553 67.8336 129.576 67.8785 129.104 67.7888C128.198 67.6166 126.477 67.3599 124.89 67.1596C123.315 66.961 116.841 66.8937 115.136 67.0586C113.754 67.1919 111.302 67.4935 110.837 67.5874C110.61 67.6333 110.163 67.7142 109.845 67.7669C109.265 67.8634 106.693 68.4496 106.186 68.6009C106.028 68.6481 105.87 68.5596 105.803 68.3851C105.741 68.2218 105.579 67.5639 105.443 66.9227C104.467 62.329 104.743 55.5433 106.113 50.4329C106.662 48.3858 106.912 47.7263 107.944 45.6026C108.923 43.5884 109.382 42.7654 110.642 40.7723C114.182 35.1702 114.897 33.3947 114.867 30.2789C114.847 28.1053 114.374 26.3473 112.987 23.2834C111.408 19.7983 111.158 14.9971 112.346 11.0408C113.108 8.50753 114.921 4.83527 116.336 2.96254Z" fill="#3D3D3D"/>
<path d="M23.0059 55.4355H66.5573V73.0662H49.1566V59.6429H40.4066V120.749H49.1566V103.218H44.7816V99.0112H66.5573V124.956H23.0059V55.4355Z" fill="#D72323"/>
<path d="M104.669 78.6094V90.3631H89.9535C89.2021 90.3631 88.5615 90.6524 88.0311 91.2313C87.5008 91.7656 87.2357 92.4112 87.2357 93.168C87.2357 93.9248 87.5008 94.5704 88.0311 95.1047C88.5615 95.6389 89.2021 95.9061 89.9535 95.9061H104.669V124.957H93.069V98.7109H89.9535C88.9812 98.7109 88.0752 98.466 87.2357 97.9763V124.957H75.6353V78.6094H104.669ZM93.069 87.5582V81.4142H87.2357V88.2929C88.0752 87.8032 88.9812 87.5582 89.9535 87.5582H93.069ZM139.756 78.6094V124.957H128.155V114.071C127.404 114.783 126.52 115.34 125.504 115.741C124.531 116.141 123.471 116.342 122.322 116.342V124.957H110.721V95.9061H122.322C123.957 95.9061 125.327 95.3496 126.432 94.2365C127.581 93.079 128.155 91.6766 128.155 90.0292V81.4142H122.322V90.3631H110.721V78.6094H139.756ZM128.155 96.3736C127.404 97.1303 126.52 97.7092 125.504 98.1099C124.531 98.5106 123.471 98.7109 122.322 98.7109V113.537C123.957 113.537 125.327 112.98 126.432 111.867C127.581 110.71 128.155 109.307 128.155 107.66V96.3736ZM174.842 78.6094V124.957H163.241V114.071C162.49 114.783 161.606 115.34 160.59 115.741C159.617 116.141 158.557 116.342 157.408 116.342V124.957H145.808V95.9061H157.408C159.043 95.9061 160.413 95.3496 161.518 94.2365C162.667 93.079 163.241 91.6766 163.241 90.0292V81.4142H157.408V90.3631H145.808V78.6094H174.842ZM163.241 96.3736C162.49 97.1303 161.606 97.7092 160.59 98.1099C159.617 98.5106 158.557 98.7109 157.408 98.7109V113.537C159.043 113.537 160.413 112.98 161.518 111.867C162.667 110.71 163.241 109.307 163.241 107.66V96.3736ZM192.494 78.6094C195.676 78.6094 198.371 78.9655 200.581 79.6779C202.791 80.3457 204.581 81.1471 205.951 82.0821C207.365 82.9724 208.381 83.863 209 84.7534C209.618 85.6437 209.928 86.3115 209.928 86.7569V124.957H180.894V78.6094H192.494ZM198.327 122.152V86.7569C198.327 85.1095 197.863 83.707 196.935 82.5496C196.007 81.3921 194.527 80.8132 192.494 80.8132V122.152H198.327Z" fill="#CCCCCC"/>
</svg>
