<svg width="904" height="904" viewBox="0 0 904 904" fill="none" xmlns="http://www.w3.org/2000/svg">
<path d="M456.739 898.325C468.147 875.461 466.693 853.537 452.311 831.552C448.512 825.745 441.227 810.911 439.103 804.658C433.57 788.372 432.691 771.743 435.979 745.554C437.059 736.945 439.382 722.195 440.41 717.409C441.105 714.174 440.72 700.048 439.821 695.805C436.182 678.63 427.507 663.232 413.318 648.766C410.872 646.272 409.068 644.233 409.31 644.234C409.551 644.234 413.681 644.941 418.488 645.801C442.304 650.063 469.674 649.492 493.55 644.235C502.199 642.331 501.84 642.334 502.534 644.166C505.698 652.51 506.684 660.414 506.679 677.38C506.674 697.07 505.318 706.392 500.268 721.474C497.834 728.742 490.57 742.722 484.18 752.433C469.416 774.872 466.521 785.882 471.023 802.465C471.818 805.391 473.507 810.178 474.778 813.102C480.259 825.713 481.505 831.105 481.501 842.185C481.496 851.542 480.067 859.255 476.623 868.495C474.212 874.964 469.747 883.76 466.607 888.228C465.432 889.901 464.47 891.409 464.47 891.581C464.47 891.753 464.069 892.389 463.578 892.995C463.088 893.601 460.992 896.231 458.921 898.84C453.361 905.842 453.028 905.763 456.739 898.325ZM228.386 843.967C244.632 835.46 257.965 818.077 261.547 800.733C262.267 797.25 262.592 791.163 262.758 778.11C262.984 760.279 263.405 755.912 265.882 745.716C270.124 728.252 279.797 711.849 301.012 686.137C313.156 671.419 315.948 667.078 319.638 657.18C324.922 643.004 325.186 620.483 320.275 602.976C319.687 600.88 319.375 598.996 319.583 598.789C319.79 598.581 321.601 599.833 323.607 601.572C326.761 604.304 338.209 613.001 341.669 615.294C342.309 615.717 343.892 616.767 345.187 617.627C346.482 618.486 351.269 621.235 355.824 623.736C363.399 627.894 367.909 630.107 375.665 633.471C379.019 634.925 391.399 639.328 396.459 640.866C398.444 641.469 400.055 642.325 400.055 642.775C400.055 645.957 395.664 658.491 391.505 667.183C384.172 682.509 368.2 702.912 356.755 711.574C349.687 716.923 348.006 718.087 343.145 720.993C340.221 722.74 333.893 726.204 329.084 728.69C300.133 743.653 294.286 751.629 290.587 781.204C290.179 784.472 289.264 788.975 288.555 791.211C287.847 793.447 287.207 795.578 287.135 795.947C286.883 797.231 281.811 807.018 280.554 808.647C279.858 809.549 278.475 811.361 277.481 812.673C268.315 824.78 250.362 837.053 232.57 843.375C227.47 845.187 225.532 845.461 228.386 843.967ZM679.656 841.872C678.938 820.984 672.816 805.49 660.529 793.468C655.97 789.008 652.14 786.331 643.018 781.233C626.143 771.801 615.684 763.971 608.622 755.481C607.934 754.654 606.206 752.573 604.782 750.856C596.318 740.649 587.705 723.387 578.108 697.395C576.901 694.127 575.708 690.749 575.457 689.889C574.342 686.078 568.144 675.049 565.088 671.439C559.093 664.356 553.115 659.017 546.304 654.664C542.033 651.934 529.276 645.484 528.138 645.479C527.689 645.479 526.618 645.116 525.758 644.677C524.198 643.881 522.811 643.426 515.126 641.197C511.982 640.285 511.344 639.916 512.312 639.567C513 639.318 514.126 638.871 514.813 638.572C515.501 638.274 518.879 637.007 522.318 635.757C544.027 627.867 565.601 614.702 584.727 597.673L590.745 592.314L593.769 594.975C606.424 606.111 621.657 633.424 626.819 654.239C629.796 666.24 630.243 672.283 630.064 698.136L629.899 722.1L631.646 727.103C635.461 738.029 642.654 746.755 655.213 755.69C663.186 761.362 670.993 770.69 675.108 779.46C681.253 792.556 683.702 809.387 682.143 827.799C681.453 835.951 679.778 845.427 679.656 841.872ZM74.1717 682.306C70.873 682.014 66.5109 681.372 64.4782 680.881L60.7823 679.986L64.5346 679.86C66.5984 679.791 68.4721 679.759 68.6985 679.789C69.7378 679.928 79.7794 677.918 84.1109 676.704C89.2697 675.258 97.7796 671.237 102.753 667.895C106.616 665.3 113.125 658.718 116.665 653.828C118.164 651.758 120.937 647.133 122.828 643.552C124.719 639.97 126.885 636.195 127.642 635.163C128.399 634.131 129.767 631.987 130.682 630.397C138.411 616.976 152.791 603.627 169.275 594.571C177.775 589.901 200.707 580.25 214.315 575.616C218.448 574.208 226.693 569.772 230.935 566.672C236.086 562.91 243.359 555.376 247.554 549.458C252.373 542.661 258.019 531.023 260.963 521.817C262.307 517.612 263.588 514.164 263.809 514.155C264.03 514.147 264.395 514.914 264.621 515.859C265.007 517.479 267.348 523.449 270.077 529.776C271.925 534.06 279.391 548.634 280.7 550.512C281.336 551.425 281.857 552.351 281.857 552.57C281.857 552.789 282.374 553.73 283.007 554.662C283.639 555.594 285.389 558.186 286.896 560.422C290.358 565.56 296.594 573.986 299.368 577.274C300.801 578.974 308.208 587.189 310.225 589.315L312.014 591.202L308.661 594.622C304.506 598.86 295.078 606.505 290.998 608.945C289.318 609.949 286.644 611.545 285.056 612.491C280.122 615.432 264.063 622.961 262.704 622.971C262.403 622.971 261.447 623.345 260.578 623.798C257.59 625.358 244.633 628.541 237.2 629.541C231.243 630.342 225.179 630.504 206.869 630.351C186.316 630.179 183.527 630.276 179.506 631.307C168.938 634.017 159.417 641.017 151.104 652.19C145.66 659.506 137.802 667.489 132.868 670.713C117.431 680.8 98.7742 684.485 74.1717 682.306ZM843.51 675.663C839.348 666.388 826.649 653.711 816.258 648.459C804.696 642.614 799.8 641.717 778.102 641.472C765.375 641.329 758.914 640.989 754.452 640.228C747.758 639.087 735.354 635.529 730.885 633.468C720.688 628.766 712.612 623.861 702.43 616.187C696.973 612.074 684.346 602.11 683.981 601.628C683.116 600.488 671.971 592.032 668.972 590.24C663.938 587.233 655.695 583.885 649.272 582.238C644.31 580.965 642.124 580.791 630.823 580.772C623.772 580.76 617.017 580.942 615.814 581.177C614.61 581.412 612.077 581.883 610.185 582.223C608.293 582.563 605.479 583.154 603.931 583.535C602.383 583.916 600.455 584.371 599.646 584.545C597.93 584.915 597.511 585.543 604.869 576.724C609.52 571.15 620.138 556.369 621.746 553.23C622.274 552.198 623.375 550.228 624.191 548.852C629.841 539.325 636.833 523.672 640.675 511.951C641.916 508.167 643.175 504.904 643.475 504.701C644.384 504.085 652.33 506.441 659.903 509.573C668.016 512.927 679.831 519.555 685.857 524.132C687.061 525.046 689.453 526.847 691.173 528.134C706.715 539.763 716.532 552.135 728.208 574.808C742.895 603.326 751.223 609.669 778.709 613.273C783.17 613.858 788.658 614.92 790.904 615.634C793.15 616.347 795.278 616.989 795.634 617.059C797.099 617.35 805.268 621.71 809.058 624.224C811.294 625.707 815.68 629.479 818.805 632.605C824.446 638.25 832.198 648.132 832.198 649.679C832.198 650.123 832.449 650.486 832.757 650.486C834.217 650.486 845.578 676.091 844.566 677.103C844.41 677.258 843.935 676.61 843.51 675.663ZM441.33 618.792C420.905 617.658 399.173 612.06 379.73 602.924C374.401 600.419 358.936 591.421 354.574 588.286C342.783 579.813 329.685 567.485 320.778 556.478C305.686 537.826 295.179 517.187 288.558 493.187C286.753 486.646 286.472 485.312 284.995 476.3C284.656 474.236 284.211 471.563 284.004 470.359C283.164 465.46 282.962 441.108 283.703 434.083C289.226 381.698 316.692 336.718 360.655 308.057C376.652 297.629 395.687 289.67 415.377 285.178C432.32 281.313 456.351 280.297 473.939 282.703C478.878 283.378 483.482 284.059 484.17 284.215C484.857 284.371 487.97 285.074 491.086 285.776C503.341 288.539 516.764 293.562 529.473 300.143C560.151 316.027 585.188 340.841 601.239 371.27C611.37 390.476 617.254 409.354 619.857 431C620.713 438.117 621.281 462.81 620.615 463.95C620.465 464.207 620.151 466.528 619.916 469.108C618.951 479.726 613.394 502.273 609.434 511.638C606.52 518.529 605.306 521.137 601.927 527.751C593.857 543.549 579.672 562.381 567.704 573.185C566.525 574.249 565.114 575.542 564.569 576.058C564.025 576.574 562.175 578.122 560.459 579.498C558.744 580.874 557.199 582.148 557.027 582.329C555.305 584.14 542.41 593.065 537.015 596.18C507.43 613.261 475.907 620.71 441.33 618.792ZM212.439 506.865C189.36 504.08 174.876 498.997 155.972 487.05C137.895 475.626 132.182 472.616 124.68 470.562C119.497 469.143 108.982 469.165 103.934 470.605C98.4067 472.181 90.9816 474.834 89.5501 475.743C87.3087 477.167 79.5359 479.708 74.1653 480.771C62.4837 483.085 47.0496 481.493 35.1414 476.745C28.3306 474.03 15.1577 466.954 11.3767 463.98C4.79163 458.801 2.90074 457.255 1.07209 455.553C-0.939199 453.682 -0.563485 453.8 6.07517 457.122C18.89 463.537 33.4534 466.032 45.3337 463.848C55.6356 461.955 60.3994 459.992 72.3743 452.708C84.8646 445.109 99.5154 438.674 108.937 436.648C119.256 434.429 129.898 433.781 142.318 434.617C148.036 435.001 153.418 435.448 154.278 435.61C155.138 435.771 158.093 436.198 160.844 436.558C168.293 437.533 177.025 438.877 183.358 440.025C190.345 441.291 202.571 441.314 208.416 440.073C224.445 436.669 239.689 428.438 252.637 416.195C254.663 414.28 256.431 412.824 256.567 412.96C256.703 413.096 256.53 414.879 256.182 416.922C254.513 426.733 253.738 437.288 253.726 450.363C253.711 467.925 255.218 481.296 258.94 496.627C259.932 500.715 260.171 502.693 259.706 502.968C259.334 503.188 255.653 504.146 251.525 505.096C244.627 506.684 242.834 506.836 229.324 506.976C221.241 507.06 213.643 507.01 212.439 506.865ZM646.089 491.624C648.958 479.121 650.211 466.772 650.203 451.053C650.194 432.136 648.999 421.452 644.769 402.467C644.516 401.333 645.01 401.064 649.067 400.128C660.786 397.421 665.015 397.039 679.603 397.369C698.051 397.786 706.899 399.175 720.809 403.836C728.51 406.417 737.624 410.861 746.095 416.165C749.472 418.28 752.709 420.292 753.286 420.636C753.864 420.98 755.671 422.188 757.303 423.321C761.454 426.203 772.973 432.028 776.728 433.143C787.922 436.468 799.608 435.228 813.123 429.281C825.024 424.045 831.088 422.666 842.204 422.668C854.858 422.668 864.286 425.109 877.967 431.918C887.005 436.417 894.62 441.601 902.554 448.659C905 450.835 904.896 450.805 897.863 447.316C887.77 442.307 878.867 440.082 868.783 440.049C854.768 440.003 846.568 442.524 832.198 451.295C803.253 468.961 783.19 473.026 747.458 468.463C736.827 467.106 728.623 465.858 720.879 464.422C711.121 462.612 697.922 463.307 688.046 466.151C677.031 469.323 661.887 478.286 652.086 487.433C650.538 488.878 648.475 490.764 647.501 491.624L645.73 493.187L646.089 491.624ZM254.027 398.473C232.304 392.021 206.999 374.847 192.22 356.528C187.403 350.557 182.197 342.174 176.579 331.345C163.553 306.237 157.313 299.524 142.441 294.619C137.22 292.897 133.972 292.268 123.008 290.859C108.215 288.958 96.0503 282.803 84.8455 271.55C75.2693 261.932 67.84 250.304 62.049 235.869C59.3105 229.043 58.4919 225.157 60.6808 229.374C65.7745 239.188 77.1745 250.493 87.2782 255.75C98.9092 261.802 103.867 262.741 125.578 263.008C134.999 263.124 143.412 263.344 144.271 263.498C145.131 263.653 147.383 263.984 149.275 264.236C157.183 265.286 171.295 269.623 176.948 272.74C177.55 273.072 178.535 273.606 179.137 273.927C188.58 278.955 197.729 285.104 208.999 293.996C213.654 297.669 214.721 298.542 219.18 302.318C223.827 306.254 230.095 311.098 232.806 312.848C250.402 324.207 271.795 326.865 299.368 321.118L301.556 320.662L299.68 322.881C283.031 342.572 269.308 368.11 261.518 393.898C259.564 400.368 259.84 400.2 254.027 398.473ZM639.652 385.09C638.923 383.427 638.327 381.725 638.327 381.306C638.327 380.887 638.097 380.278 637.815 379.951C637.533 379.624 636.508 377.246 635.536 374.666C633.495 369.244 628.29 358.602 624.1 351.281C620.579 345.128 611.566 331.739 608.056 327.445C604.218 322.749 598.274 315.838 595.973 313.394L593.933 311.228L596.274 308.806C598.732 306.263 609.833 297.111 610.459 297.111C610.659 297.111 612.225 296.126 613.937 294.922C615.65 293.718 617.18 292.733 617.337 292.733C617.494 292.733 619.397 291.692 621.565 290.42C630.887 284.95 647.097 278.782 659.416 276.017C666.732 274.374 666.971 274.362 694.3 274.279L721.817 274.196L726.746 272.498C737.138 268.92 744.543 263.178 752.677 252.393C766.251 234.393 778.18 226.777 798.739 222.984C806.403 221.57 817.753 221.188 827.507 222.017C835.662 222.71 845.128 224.385 841.578 224.507C830.636 224.883 819.961 227.083 812.044 230.594C807.723 232.51 801.459 236.021 800.182 237.243C799.733 237.673 798.179 238.95 796.73 240.082C792.027 243.756 785.377 252.609 780.907 261.148C768.274 285.283 753.446 300.352 731.197 311.668C724.091 315.283 709.42 321.567 700.866 324.66C685.164 330.339 681.774 331.863 675.538 336.05C661.584 345.419 649.892 361.782 643.354 381.091L640.976 388.113L639.652 385.09ZM307.753 306.961C296.185 294.868 287.879 280.88 280.551 261.148C274.65 245.257 273.614 236.875 273.853 206.927C274.064 180.482 273.974 179.773 269.187 170.285C265.795 163.561 260.432 157.724 251.263 150.778C240.214 142.408 234.259 135.656 229.454 126.052C223.984 115.116 221.186 102.521 221.201 88.895C221.209 81.2462 222.272 69.0632 223.328 64.5219L224.145 61.0058L224.6 67.2602C225.96 85.9383 231.898 99.7819 243.319 110.902C247.013 114.498 253.393 119.34 256.655 121.022C276.036 131.017 288.777 140.655 298.442 152.633C308.24 164.775 314.793 177.998 326.959 210.174C333.37 227.128 339.677 236.168 351.443 245.262C359.932 251.823 370.197 257.284 380.824 260.891C383.146 261.679 385.046 262.514 385.046 262.746C385.046 262.979 383.287 263.802 381.137 264.576C378.987 265.35 373.18 267.921 368.231 270.289C363.283 272.657 359.098 274.595 358.932 274.595C358.229 274.595 347.113 281.474 339.392 286.686C331.767 291.834 320.789 300.748 314.438 306.947C312.58 308.761 311.022 310.245 310.977 310.245C310.932 310.245 309.481 308.767 307.753 306.961ZM580.325 298.747C576.902 295.661 571.215 291.323 565.157 287.178C546.787 274.609 532.299 267.588 508.56 259.754C504.26 258.335 504.342 258.731 506.772 251.141C510.293 240.144 517.821 226.331 526.882 214.239C539.364 197.583 551.672 187.675 574.485 175.922C603.482 160.983 609.786 152.477 613.293 123.55C614.483 113.74 617.387 105.54 622.597 97.2815C632.093 82.2281 650.127 68.7771 670.793 61.3332C676.291 59.3528 678.078 59.2145 674.502 61.0462C671.198 62.7381 661.261 70.3914 658.912 73.0525C654.557 77.9872 653.565 79.2075 651.679 81.9581C647.786 87.6366 643.264 98.0495 642.399 103.332C642.212 104.476 641.905 106.163 641.718 107.081C641.531 107.999 641.293 116.583 641.189 126.157C640.983 145.124 640.369 150.536 637.142 161.802C634.01 172.736 629.977 181.127 622.161 192.974C618.095 199.137 610.16 209.645 604.889 215.844C603.846 217.071 602.008 219.304 600.804 220.807C599.6 222.309 597.751 224.542 596.694 225.769C593.968 228.932 589.547 235.278 589.547 236.026C589.547 236.373 589.155 237.101 588.676 237.644C587.259 239.25 583.961 247.569 582.21 253.955C580.718 259.394 580.576 260.955 580.53 272.406C580.484 283.775 580.856 290.377 581.678 292.78C581.845 293.27 582.131 294.656 582.314 295.86C582.496 297.064 582.775 298.682 582.933 299.456C583.312 301.306 583.097 301.247 580.325 298.747ZM400.166 256.507C399.801 255.461 398.893 251.011 398.147 246.618C396.933 239.467 396.827 237.127 397.136 224.247C397.885 193 403.048 177.467 422.707 147.317C427.356 140.188 432.166 130.368 433.583 125.114C435.189 119.159 435.054 109.326 433.277 102.911C431.851 97.7592 430.985 95.3988 428.345 89.4635C423.541 78.6614 422.361 73.0371 422.442 61.3185C422.492 54.044 423.876 45.4875 426.029 39.1478C427.608 34.4987 431.696 25.4201 433.49 22.577C434.363 21.1949 435.077 19.9216 435.077 19.7473C435.077 18.643 446.554 3.04229 449.119 0.659459C450.581 -0.698113 450.429 -0.210084 447.918 4.50918C440.898 17.7068 438.207 32.6033 440.367 46.3079C440.761 48.8027 442.371 54.763 443.156 56.6277C443.445 57.3157 444.209 59.1395 444.852 60.6806C445.495 62.2216 448.217 67.147 450.901 71.6258C456.686 81.2798 462.477 92.9517 464.714 99.4706C471.71 119.849 471.618 141.9 464.374 181.676C462.989 189.277 462.72 202.37 463.844 207.478C464.208 209.133 464.817 211.871 465.198 213.562C466.21 218.063 470.273 227.714 473.609 233.546C476.931 239.353 484.092 249.073 487.453 252.338C488.704 253.553 489.602 254.667 489.45 254.814C489.297 254.96 487.625 254.824 485.733 254.512C470.857 252.054 455.246 251.197 441.018 252.059C432.257 252.589 423.064 253.53 419.442 254.268C418.582 254.443 416.331 254.863 414.439 255.2C409.895 256.011 403.127 257.526 401.849 258.017C401.106 258.303 400.649 257.893 400.166 256.507Z" fill="#3D3D3D"/>
</svg>
