<svg width="207" height="78" viewBox="0 0 207 78" fill="none" xmlns="http://www.w3.org/2000/svg">
<path d="M0 0H48.107V19.6287H28.8862V4.68413H19.2209V72.7156H28.8862V53.1984H24.0535V48.5142H48.107V77.3997H0V0Z" fill="#D72323"/>
<path d="M90.2061 25.7998V38.8856H73.9507C73.1207 38.8856 72.4131 39.2077 71.8273 39.8522C71.2415 40.447 70.9486 41.1658 70.9486 42.0084C70.9486 42.8509 71.2415 43.5698 71.8273 44.1646C72.4131 44.7594 73.1207 45.0568 73.9507 45.0568H90.2061V77.3996H77.3922V48.1795H73.9507C72.8767 48.1795 71.8759 47.9068 70.9486 47.3617V77.3996H58.1348V25.7998H90.2061ZM77.3922 35.7629V28.9226H70.9486V36.5807C71.8759 36.0356 72.8767 35.7629 73.9507 35.7629H77.3922ZM128.962 25.7998V77.3996H116.148V65.2804C115.318 66.0735 114.342 66.693 113.22 67.1391C112.146 67.5852 110.974 67.8083 109.705 67.8083V77.3996H96.891V45.0568H109.705C111.511 45.0568 113.024 44.4373 114.245 43.198C115.514 41.9093 116.148 40.348 116.148 38.5139V28.9226H109.705V38.8856H96.891V25.7998H128.962ZM116.148 45.5773C115.318 46.4198 114.342 47.0643 113.22 47.5104C112.146 47.9565 110.974 48.1795 109.705 48.1795V64.6855C111.511 64.6855 113.024 64.066 114.245 62.8268C115.514 61.5381 116.148 59.9767 116.148 58.1426V45.5773ZM167.718 25.7998V77.3996H154.905V65.2804C154.075 66.0735 153.098 66.693 151.976 67.1391C150.902 67.5852 149.73 67.8083 148.461 67.8083V77.3996H135.647V45.0568H148.461C150.267 45.0568 151.78 44.4373 153.001 43.198C154.27 41.9093 154.905 40.348 154.905 38.5139V28.9226H148.461V38.8856H135.647V25.7998H167.718ZM154.905 45.5773C154.075 46.4198 153.098 47.0643 151.976 47.5104C150.902 47.9565 149.73 48.1795 148.461 48.1795V64.6855C150.267 64.6855 151.78 64.066 153.001 62.8268C154.27 61.5381 154.905 59.9767 154.905 58.1426V45.5773ZM187.217 25.7998C190.732 25.7998 193.709 26.1963 196.15 26.9894C198.591 27.7329 200.568 28.6252 202.081 29.6661C203.643 30.6573 204.766 31.6489 205.45 32.6401C206.133 33.6314 206.475 34.3749 206.475 34.8707V77.3996H174.403V25.7998H187.217ZM193.661 74.2769V34.8707C193.661 33.0366 193.148 31.4752 192.123 30.1865C191.098 28.8979 189.463 28.2534 187.217 28.2534V74.2769H193.661Z" fill="#CCCCCC"/>
</svg>
